<svg width="15" height="15" viewBox="0 0 15 15" fill="none" xmlns="http://www.w3.org/2000/svg">
<mask id="mask0" mask-type="alpha" maskUnits="userSpaceOnUse" x="0" y="1" width="15" height="14">
<path d="M6.62584 2.32348L0.825357 12.7644C0.455062 13.4309 0.93703 14.25 1.69951 14.25H13.3005C14.063 14.25 14.5449 13.4309 14.1746 12.7644L8.37416 2.32348C7.99315 1.63767 7.00685 1.63767 6.62584 2.32348Z" fill="#C4C4C4"/>
</mask>
<g mask="url(#mask0)">
<rect x="-2" y="1.75" width="18" height="5" fill="#D2C867"/>
</g>
<path opacity="0.2" d="M6.62584 2.32348L0.825357 12.7644C0.455062 13.4309 0.93703 14.25 1.69951 14.25H13.3005C14.063 14.25 14.5449 13.4309 14.1746 12.7644L8.37416 2.32348C7.99315 1.63767 7.00685 1.63767 6.62584 2.32348Z" fill="#D2C867"/>
</svg>
